<?xml version="1.0" encoding="UTF-8"?>
<svg width="256" height="256" version="1.1"
     xmlns="http://www.w3.org/2000/svg"
     xmlns:xlink="http://www.w3.org/1999/xlink">
  <defs>
    <linearGradient id="Gradient" x1="0" x2="0" y1="0" y2="1">
      <stop offset="0%" style="stop-color:#8AE7B2;stop-opacity:1" />
      <stop offset="100%" style="stop-color:#378ADE;stop-opacity:1" />
    </linearGradient>
    <filter id="alpha-to-white">
      <feColorMatrix in="SourceGraphic" type="matrix"
                     values="0 0 0 0 1 0 0 0 0 1 0 0 0 0 1 0 0 0 1 0"/>
    </filter>
    <g id="child-svg"><svg xmlns="http://www.w3.org/2000/svg" xmlns:inkscape="http://www.inkscape.org/namespaces/inkscape" xmlns:sodipodi="http://sodipodi.sourceforge.net/DTD/sodipodi-0.dtd" xmlns:svg="http://www.w3.org/2000/svg" height="16px" viewBox="0 0 16 16" width="16px" version="1.1" id="svg6" sodipodi:docname="be.alexandervanhee.gradia-symbolic.svg" xml:space="preserve" inkscape:version="1.4.3 (0d15f75042, 2025-12-25)"><defs id="defs6" /><sodipodi:namedview id="namedview6" pagecolor="#ffffff" bordercolor="#000000" borderopacity="0.25" inkscape:showpageshadow="2" inkscape:pageopacity="0.0" inkscape:pagecheckerboard="0" inkscape:deskcolor="#d1d1d1" inkscape:zoom="22.265625" inkscape:cx="-2.6049123" inkscape:cy="14.192281" inkscape:window-width="1920" inkscape:window-height="1011" inkscape:window-x="0" inkscape:window-y="0" inkscape:window-maximized="1" inkscape:current-layer="svg6" /><g stroke="#3d3846" stroke-linecap="round" stroke-linejoin="round" stroke-width="2" id="g6"><g fill="#f66151" id="g4"><path d="m 3 1 c -1.105469 0 -2 0.894531 -2 2" id="path1" /><path d="m 163 173 c -1.105469 0 -2 0.894531 -2 2" transform="matrix(-1 0 0 1 176 -172)" id="path2" /><path d="m 163 173 c -1.105469 0 -2 0.894531 -2 2" transform="matrix(1 0 0 -1 -160 188)" id="path3" /><path d="m 163 173 c -1.105469 0 -2 0.894531 -2 2" transform="matrix(-1 0 -0 -1 176 188)" id="path4" /></g></g><path d="M 10.853974,3.5032224 10.02935,4.3278465 c 0.824624,0 1.646026,0.8278449 1.646026,1.6492479 L 12.5,5.1524704 c 0,-0.8214029 -0.618468,-1.649248 -1.646026,-1.649248 z M 9.2691499,5.0751619 3.5032244,10.847529 3.5000001,12.496778 H 5.149248 l 5.769146,-5.7723682 c 0,-0.8214029 -0.824624,-1.6492479 -1.6492473,-1.6492479 z" fill="#222222" id="path1-5" sodipodi:nodetypes="cccccccccccc" style="stroke-width:0.824624" /></svg></g>
  </defs>
  <rect
      width="256"
      height="256"
      fill="url(#Gradient)"
      ry="128"
      x="0"
      y="0" />
  <use xlink:href="#child-svg" filter="url(#alpha-to-white)"
       transform="matrix(8,0,0,8,64,64)" />
</svg>