<?xml version="1.0" encoding="UTF-8" standalone="no"?>
<svg
   height="16"
   viewBox="0 0 16 16"
   width="16"
   version="1.1"
   id="svg15"
   xmlns="http://www.w3.org/2000/svg"
   xmlns:svg="http://www.w3.org/2000/svg">
  <defs
     id="defs15" />
  <g
     fill="#222222"
     id="g15">
    <g
       id="g16"
       transform="translate(0.03182683,-0.0353622)">
      <path
         d="M 5.0835579,1.6892086 H 7.3912502 V 2.8430547 H 5.0835579 Z m 0,0"
         id="path4"
         style="stroke-width:1.15385" />
      <path
         d="M 8.5450964,1.6892086 H 10.852788 V 2.8430547 H 8.5450964 Z m 0,0"
         id="path5"
         style="stroke-width:1.15385" />
      <path
         d="m 5.0835579,13.22767 h 2.3076923 v 1.153846 H 5.0835579 Z m 0,0"
         id="path6"
         style="stroke-width:1.15385" />
      <path
         d="m 8.5450964,13.22767 h 2.3076916 v 1.153846 H 8.5450964 Z m 0,0"
         id="path7"
         style="stroke-width:1.15385" />
      <path
         d="M 1.6220195,5.150747 H 2.7758656 V 7.4584393 H 1.6220195 Z m 0,0"
         id="path8"
         style="stroke-width:1.15385" />
      <path
         d="M 1.6220195,8.6122854 H 2.7758656 V 10.919977 H 1.6220195 Z m 0,0"
         id="path9"
         style="stroke-width:1.15385" />
      <path
         d="m 13.160481,5.150747 h 1.153846 v 2.3076923 h -1.153846 z m 0,0"
         id="path10"
         style="stroke-width:1.15385" />
      <path
         d="m 13.160481,8.6122854 h 1.153846 v 2.3076916 h -1.153846 z m 0,0"
         id="path11"
         style="stroke-width:1.15385" />
      <path
         d="m 3.9297118,2.2661316 c 0,0.9555289 -0.7707335,1.7307693 -1.7307693,1.7307693 -0.9555288,0 -1.73076916,-0.7752404 -1.73076916,-1.7307693 0,-0.9555288 0.77524036,-1.7307692 1.73076916,-1.7307692 0.9600358,0 1.7307693,0.7752404 1.7307693,1.7307692 z m 0,0"
         id="path12"
         style="stroke-width:1.15385" />
      <path
         d="m 15.468173,2.2661316 c 0,0.9555289 -0.770733,1.7307693 -1.730769,1.7307693 -0.955529,0 -1.730769,-0.7752404 -1.730769,-1.7307693 0,-0.9555288 0.77524,-1.7307692 1.730769,-1.7307692 0.960036,0 1.730769,0.7752404 1.730769,1.7307692 z m 0,0"
         id="path13"
         style="stroke-width:1.15385" />
      <path
         d="m 3.9297118,13.804593 c 0,0.955529 -0.7707335,1.730769 -1.7307693,1.730769 -0.9555288,0 -1.73076916,-0.77524 -1.73076916,-1.730769 0,-0.955529 0.77524036,-1.730769 1.73076916,-1.730769 0.9600358,0 1.7307693,0.77524 1.7307693,1.730769 z m 0,0"
         id="path14"
         style="stroke-width:1.15385" />
      <path
         d="m 15.468173,13.804593 c 0,0.955529 -0.770733,1.730769 -1.730769,1.730769 -0.955529,0 -1.730769,-0.77524 -1.730769,-1.730769 0,-0.955529 0.77524,-1.730769 1.730769,-1.730769 0.960036,0 1.730769,0.77524 1.730769,1.730769 z m 0,0"
         id="path15"
         style="stroke-width:1.15385" />
    </g>
  </g>
</svg>
